<?xml version="1.0" encoding="iso-8859-1"?>
<!-- Uploaded to: SVG Repo, www.svgrepo.com, Generator: SVG Repo Mixer Tools -->
<svg height="800px" width="800px" version="1.1" id="Layer_1" xmlns="http://www.w3.org/2000/svg" xmlns:xlink="http://www.w3.org/1999/xlink" 
	 viewBox="0 0 512 512" xml:space="preserve">
<g>
	<path style="fill:#AEADB3;" d="M182.41,340.038c-2.095,0-4.191-0.799-5.789-2.397c-3.197-3.199-3.197-8.382,0-11.579l57.696-57.696
		c4.379-4.379,6.791-10.202,6.791-16.395s-2.411-12.015-6.791-16.393L102.959,104.218c-10.42-10.421-10.42-27.376,0-37.797
		l49.317-49.316c10.42-10.42,27.376-10.42,37.795,0l8.525,8.527c3.197,3.197,3.197,8.382,0,11.578
		c-3.199,3.197-8.382,3.196-11.579-0.001l-8.525-8.526c-4.036-4.035-10.603-4.035-14.638,0.001l-49.317,49.317
		c-4.036,4.035-4.036,10.602,0,14.637l131.358,131.359c7.472,7.472,11.587,17.405,11.587,27.973c0,10.567-4.116,20.5-11.587,27.973
		l-57.696,57.697C186.601,339.239,184.506,340.038,182.41,340.038z"/>
	<path style="fill:#AEADB3;" d="M488.249,335.051c-2.095,0-4.191-0.799-5.789-2.397l-10.909-10.908
		c-3.197-3.197-3.197-8.382,0-11.578c3.197-3.199,8.382-3.197,11.578-0.001l10.909,10.908c3.197,3.197,3.197,8.382,0,11.578
		C492.44,334.25,490.345,335.051,488.249,335.051z"/>
</g>
<path style="fill:#FB0125;" d="M242.398,4.746c-6.328-6.328-16.588-6.328-22.916,0l-54.084,54.083
	c-6.328,6.328-6.328,16.588,0,22.916l261.617,261.617c6.328,6.328,16.588,6.328,22.916,0l54.084-54.084
	c6.328-6.328,6.328-16.588,0-22.916L242.398,4.746z"/>
<path style="fill:#CC111E;" d="M445.678,324.702L184.059,63.085c-6.328-6.328-6.328-16.588,0-22.916l-18.662,18.661
	c-6.328,6.328-6.328,16.588,0,22.916l261.617,261.617c6.328,6.328,16.588,6.328,22.916,0l18.662-18.662
	C462.265,331.03,452.005,331.03,445.678,324.702z"/>
<path style="fill:#FEA921;" d="M137.46,325.411l52.367,52.367c2.549,2.549,6.683,2.549,9.233,0l10.023-10.023
	c2.549-2.55,2.549-6.683,0-9.233l-52.367-52.367c-2.549-2.549-6.683-2.549-9.233,0l-10.023,10.023
	C134.911,318.728,134.911,322.862,137.46,325.411z"/>
<path style="fill:#E58200;" d="M209.082,358.523l-18.662-18.662c2.549,2.549,2.55,6.683,0,9.233l-10.023,10.023
	c-2.55,2.55-6.683,2.55-9.233,0l18.662,18.662c2.549,2.549,6.683,2.55,9.233,0l10.023-10.023
	C211.632,365.207,211.632,361.074,209.082,358.523z"/>
<path style="fill:#FEA921;" d="M143.498,331.448l40.293,40.293L60.226,507.537c-5.027,5.703-13.825,5.98-19.2,0.605L7.098,474.213
	c-5.375-5.375-5.099-14.173,0.605-19.2L143.498,331.448z"/>
<path style="fill:#E58200;" d="M60.226,507.536l123.565-135.795l-18.662-18.662L41.564,488.875c-5.027,5.703-13.825,5.98-19.2,0.605
	l18.662,18.662C46.402,513.516,55.199,513.24,60.226,507.536z"/>
<polygon style="fill:#FE8901;" points="131.703,342.18 173.059,383.536 183.791,371.742 143.498,331.448 "/>
<polygon style="fill:#E57501;" points="173.059,383.536 183.791,371.742 165.129,353.08 154.397,364.874 "/>
<path style="fill:#FF3E4C;" d="M466.791,299.329L466.791,299.329c-6.374,6.374-16.71,6.374-23.084,0L217.461,73.083
	c-6.374-6.374-6.374-16.71,0-23.084l0,0c6.374-6.374,16.71-6.374,23.084,0l226.246,226.246
	C473.167,282.62,473.167,292.955,466.791,299.329z"/>
</svg>